HIERARCHY
ROOT Hips
{
	OFFSET 0.00000 0.00000 0.00000
	CHANNELS 6 Xposition Yposition Zposition Zrotation Yrotation Xrotation 
	JOINT LHipJoint
	{
		OFFSET 0 0 0
		CHANNELS 3 Zrotation Yrotation Xrotation
		JOINT LeftUpLeg
		{
			OFFSET 1.84395 -1.68683 0.74144
			CHANNELS 3 Zrotation Yrotation Xrotation
			JOINT LeftLeg
			{
				OFFSET 2.27037 -6.23779 0.00000
				CHANNELS 3 Zrotation Yrotation Xrotation
				JOINT LeftFoot
				{
					OFFSET 2.56918 -7.05877 0.00000
					CHANNELS 3 Zrotation Yrotation Xrotation
					JOINT LeftToeBase
					{
						OFFSET 0.22276 -0.61202 1.71784
						CHANNELS 3 Zrotation Yrotation Xrotation
						End Site
						{
							OFFSET 0.00000 -0.00000 0.91613
						}
					}
				}
			}
		}
	}
	JOINT RHipJoint
	{
		OFFSET 0 0 0
		CHANNELS 3 Zrotation Yrotation Xrotation
		JOINT RightUpLeg
		{
			OFFSET -1.76833 -1.68684 0.74144
			CHANNELS 3 Zrotation Yrotation Xrotation
			JOINT RightLeg
			{
				OFFSET -2.49360 -6.85110 0.00000
				CHANNELS 3 Zrotation Yrotation Xrotation
				JOINT RightFoot
				{
					OFFSET -2.55538 -7.02085 0.00000
					CHANNELS 3 Zrotation Yrotation Xrotation
					JOINT RightToeBase
					{
						OFFSET -0.21516 -0.59115 1.68050
						CHANNELS 3 Zrotation Yrotation Xrotation
						End Site
						{
							OFFSET -0.00000 -0.00000 0.89604
						}
					}
				}
			}
		}
	}
	JOINT LowerBack
	{
		OFFSET 0 0 0
		CHANNELS 3 Zrotation Yrotation Xrotation
		JOINT Spine
		{
			OFFSET 0.06382 1.72312 -0.19613
			CHANNELS 3 Zrotation Yrotation Xrotation
			JOINT Spine1
			{
				OFFSET -0.00055 1.73507 0.23859
				CHANNELS 3 Zrotation Yrotation Xrotation
				JOINT Neck
				{
					OFFSET 0 0 0
					CHANNELS 3 Zrotation Yrotation Xrotation
					JOINT Neck1
					{
						OFFSET 0.03638 1.65562 0.09633
						CHANNELS 3 Zrotation Yrotation Xrotation
						JOINT Head
						{
							OFFSET 0.06388 1.62807 -0.32386
							CHANNELS 3 Zrotation Yrotation Xrotation
							End Site
							{
								OFFSET 0.00995 1.67644 -0.12021
							}
						}
					}
				}
				JOINT LeftShoulder
				{
					OFFSET 0 0 0
					CHANNELS 3 Zrotation Yrotation Xrotation
					JOINT LeftArm
					{
						OFFSET 3.09648 1.42991 0.28122
						CHANNELS 3 Zrotation Yrotation Xrotation
						JOINT LeftForeArm
						{
							OFFSET 5.11878 -0.00000 -0.00000
							CHANNELS 3 Zrotation Yrotation Xrotation
							JOINT LeftHand
							{
								OFFSET 3.59971 -0.00000 0.00000
								CHANNELS 3 Zrotation Yrotation Xrotation
								JOINT LeftFingerBase
								{
									OFFSET 0 0 0
									CHANNELS 3 Zrotation Yrotation Xrotation
									JOINT LeftHandIndex1
									{
										OFFSET 0.62877 -0.00000 0.00000
										CHANNELS 3 Zrotation Yrotation Xrotation
										End Site
										{
											OFFSET 0.50693 -0.00000 0.00000
										}
									}
								}
								JOINT LThumb
								{
									OFFSET 0 0 0
									CHANNELS 3 Zrotation Yrotation Xrotation
									End Site
									{
										OFFSET 0.51467 -0.00000 0.51467
									}
								}
							}
						}
					}
				}
				JOINT RightShoulder
				{
					OFFSET 0 0 0
					CHANNELS 3 Zrotation Yrotation Xrotation
					JOINT RightArm
					{
						OFFSET -3.33565 1.14597 0.05047
						CHANNELS 3 Zrotation Yrotation Xrotation
						JOINT RightForeArm
						{
							OFFSET -5.49020 -0.00000 0.00000
							CHANNELS 3 Zrotation Yrotation Xrotation
							JOINT RightHand
							{
								OFFSET -3.20659 -0.00000 -0.00000
								CHANNELS 3 Zrotation Yrotation Xrotation
								JOINT RightFingerBase
								{
									OFFSET 0 0 0
									CHANNELS 3 Zrotation Yrotation Xrotation
									JOINT RightHandIndex1
									{
										OFFSET -0.69188 -0.00000 0.00000
										CHANNELS 3 Zrotation Yrotation Xrotation
										End Site
										{
											OFFSET -0.55781 -0.00000 0.00000
										}
									}
								}
								JOINT RThumb
								{
									OFFSET 0 0 0
									CHANNELS 3 Zrotation Yrotation Xrotation
									End Site
									{
										OFFSET -0.56633 -0.00000 0.56633
									}
								}
							}
						}
					}
				}
			}
		}
	}
}
MOTION
Frames: 10
Frame Time: .0083333
0.7561 17.4131 9.0873 0 0 0 0 0 0 -21 0 0 0 0 0 0 0 0 0 0 0 0 0 0 21 0 0 0 0 0 0 0 0 0 0 0 0 0 0 0 0 0 0 0 0 0 0 -16 0 0 21 0 0 11 0 0 0 -8 0 0 0 0 0 0 0 0 0 0 0 0 0 0 0 0 0 0 0 0 8 0 0 0 0 0 0 0 0 0 0 0 0 0 0 0 0 0
0.7561 17.4131 9.0873 -8.9441 -2.7023 10.3913 0.0000 0.0000 0.0000 -17.1224 -40.4670 22.2400 0.0543 -1.5043 -4.1375 -5.5863 42.7847 -41.3575 0.4141 4.1308 11.4450 0.0000 0.0000 0.0000 25.5294 22.9812 1.6367 -0.0492 -1.4317 3.9375 0.6913 -18.4779 -19.0752 -0.0524 1.4765 -4.0610 5.4366 1.5582 -1.0595 1.0922 2.4037 -9.3434 -2.0333 0.8059 -9.1148 -7.9168 -12.9066 -5.6164 11.8200 -19.2203 17.3123 3.1920 -8.8512 8.2145 0.0000 0.0000 0.0000 -91.3710 7.0557 -13.0341 6.7686 -11.5377 -0.6846 -0.0000 -0.0000 48.2026 18.4685 -12.2069 -4.0394 -7.1250 0.0000 -0.0000 -6.0855 17.1766 4.0399 0.0000 0.0000 0.0000 94.6601 -7.5871 -14.7317 -10.5492 17.5939 -1.6370 0.0000 0.0000 54.8093 5.9433 -30.4495 -3.0200 7.1250 -0.0000 -0.0000 39.6099 -55.7598 -11.7765
0.7566 17.4134 9.0891 -8.9346 -2.7307 10.3591 0.0000 0.0000 0.0000 -17.2051 -40.4618 22.3411 0.0549 -1.5114 -4.1571 -5.5436 42.7632 -41.4964 0.4385 4.2490 11.7782 0.0000 0.0000 0.0000 25.5242 22.8946 1.6573 -0.0488 -1.4257 3.9211 0.6835 -18.4105 -19.0390 -0.2209 3.0253 -8.3491 5.3650 1.4252 -1.0869 1.2949 2.2352 -9.3703 -1.7675 0.7365 -9.1511 -8.0750 -12.7573 -5.4916 11.5205 -18.9265 17.2817 3.1692 -8.7529 8.1333 0.0000 0.0000 0.0000 -91.7654 7.2493 -13.3867 6.8250 -11.6308 -0.6959 -0.0000 -0.0000 48.0415 18.6127 -12.2040 -4.0722 -7.1250 0.0000 -0.0000 -5.9851 17.1678 3.9737 0.0000 0.0000 0.0000 94.2338 -7.6981 -14.2531 -10.4874 17.4983 -1.6184 0.0000 0.0000 54.7623 5.9640 -30.4017 -3.0263 7.1250 -0.0000 -0.0000 39.5865 -55.7180 -11.7252
0.7568 17.4134 9.0909 -8.9459 -2.7318 10.3531 0.0000 0.0000 0.0000 -17.1796 -40.4092 22.3379 0.0557 -1.5230 -4.1891 -5.5561 42.7530 -41.4116 0.4407 4.2594 11.8077 0.0000 0.0000 0.0000 25.5455 22.8728 1.6782 -0.0484 -1.4201 3.9056 0.6862 -18.4093 -19.0006 -0.2340 3.1134 -8.5947 5.3178 1.2803 -1.1464 1.5043 2.0499 -9.4013 -1.5060 0.6577 -9.1727 -8.6620 -12.4826 -5.3387 11.6680 -18.5282 17.4045 3.3617 -8.5916 8.1756 0.0000 -0.0000 0.0000 -92.1578 7.4444 -13.6857 6.8854 -11.7304 -0.7081 -0.0000 -0.0000 47.8114 18.6615 -12.1084 -4.0523 -7.1250 0.0000 -0.0000 -5.9496 17.2635 3.9373 0.0000 -0.0000 0.0000 93.7999 -7.8354 -13.5633 -10.4528 17.4447 -1.6080 0.0000 0.0000 54.5763 5.9137 -30.4022 -3.0006 7.1250 -0.0000 -0.0000 39.5411 -55.7285 -11.7191
0.7578 17.4132 9.0926 -8.9312 -2.7259 10.3662 0.0000 0.0000 0.0000 -17.1898 -40.3951 22.3271 0.0562 -1.5297 -4.2075 -5.5672 42.7552 -41.3663 0.4270 4.1937 11.6222 0.0000 0.0000 0.0000 25.5252 22.8846 1.6880 -0.0480 -1.4144 3.8899 0.6855 -18.4225 -19.0378 -0.1077 2.1159 -5.8259 5.2489 1.1267 -1.2247 1.7178 1.8511 -9.4362 -1.2270 0.5744 -9.1871 -9.1075 -12.2507 -5.0963 11.7538 -18.1709 17.3202 3.5188 -8.4572 8.1148 0.0000 0.0000 0.0000 -92.5747 7.6218 -14.0768 6.9383 -11.8177 -0.7190 -0.0000 -0.0000 47.6504 18.6862 -12.1042 -4.0566 -7.1250 0.0000 -0.0000 -5.9322 17.2658 3.9254 0.0000 0.0000 0.0000 93.3701 -7.9541 -12.9836 -10.4294 17.4085 -1.6010 0.0000 0.0000 54.5258 5.8397 -30.4415 -2.9664 7.1250 -0.0000 -0.0000 39.5086 -55.7744 -11.7537
0.7581 17.4127 9.0938 -8.9442 -2.7239 10.3701 0.0000 0.0000 0.0000 -17.2165 -40.4544 22.3880 0.0566 -1.5346 -4.2211 -5.6309 42.8696 -41.3811 0.4059 4.0902 11.3306 0.0000 0.0000 0.0000 25.7449 23.6435 2.3168 -0.0399 -1.2896 3.5459 0.7764 -19.1940 -19.4598 -0.0262 1.0445 -2.8713 5.1775 0.9698 -1.2769 1.9344 1.6494 -9.4582 -0.9437 0.4903 -9.2008 -9.4361 -12.0337 -4.9831 11.7301 -17.8275 17.3067 3.6128 -8.3223 8.0787 -0.0000 0.0000 0.0000 -92.9826 7.7905 -13.9811 7.0424 -11.9891 -0.7404 -0.0000 -0.0000 47.1025 18.5955 -11.5078 -3.8401 -7.1250 0.0000 -0.0000 -5.9870 17.8957 3.8789 -0.0000 0.0000 0.0000 92.9158 -7.9412 -12.6008 -10.2804 17.1769 -1.5567 0.0000 0.0000 54.6810 5.5938 -30.4269 -2.8396 7.1250 -0.0000 -0.0000 39.2715 -55.8123 -11.7042
0.7580 17.4155 9.1153 -9.4771 -2.3980 10.6100 0.0000 0.0000 0.0000 -16.4232 -40.5509 22.1946 0.0602 -1.5833 -4.3554 -5.8355 43.0565 -40.9387 0.3559 3.8325 10.6059 0.0000 0.0000 0.0000 27.0225 25.7544 4.1414 -0.0179 -0.8634 2.3731 1.0929 -21.5447 -20.6448 -0.0007 -0.1721 0.4729 5.5968 0.5905 -1.9407 2.5491 1.1478 -9.5213 -0.4850 0.2443 -8.9216 -10.2686 -11.6447 -4.8025 11.6763 -17.2062 17.4481 3.8107 -8.0880 8.0909 0.0000 -0.0000 0.0000 -93.8918 8.1815 -13.8281 7.2694 -12.3617 -0.7883 -0.0000 -0.0000 46.0217 18.4059 -10.1792 -3.3657 -7.1250 0.0000 -0.0000 -6.1102 19.2966 3.7692 0.0000 -0.0000 0.0000 91.9081 -7.9883 -11.5389 -9.9895 16.7232 -1.4719 0.0000 0.0000 54.7323 5.1394 -30.3144 -2.5993 7.1250 -0.0000 -0.0000 38.7572 -55.8145 -11.5165
0.7557 17.4178 9.1233 -9.4870 -2.3116 10.7171 0.0000 0.0000 0.0000 -16.3675 -40.6819 22.1363 0.0606 -1.5881 -4.3687 -5.9131 43.1661 -40.8791 0.3473 3.7866 10.4769 0.0000 0.0000 0.0000 27.0200 25.7802 4.0854 -0.0173 -0.8504 2.3373 1.0956 -21.5812 -20.6956 -0.0061 -0.5038 1.3843 5.5826 0.6323 -2.1937 2.4804 1.1801 -9.5524 -0.5493 0.2606 -8.8039 -10.1112 -11.6822 -4.7840 11.6391 -17.2762 17.4914 3.7671 -8.1142 8.0925 -0.0000 0.0000 0.0000 -93.7514 8.2472 -13.1023 7.3164 -12.4387 -0.7984 -0.0000 -0.0000 45.6007 18.3410 -9.4935 -3.1297 -7.1250 0.0000 -0.0000 -6.1559 20.0166 3.6981 -0.0000 0.0000 0.0000 91.9743 -7.9765 -11.7122 -9.8943 16.5741 -1.4447 0.0000 0.0000 54.6808 4.9191 -30.2059 -2.4794 7.1250 -0.0000 -0.0000 38.4608 -55.7725 -11.3663
0.7562 17.4180 9.1230 -9.4469 -2.2909 10.7297 0.0000 0.0000 0.0000 -16.3829 -40.6824 22.0780 0.0600 -1.5803 -4.3471 -5.9137 43.1409 -40.8043 0.3443 3.7704 10.4317 0.0000 0.0000 0.0000 26.9651 25.7922 4.0691 -0.0174 -0.8521 2.3418 1.0994 -21.6107 -20.7168 -0.0064 -0.5179 1.4231 5.5189 0.5876 -2.1781 2.5219 1.1220 -9.5496 -0.4672 0.2386 -8.8140 -10.1786 -11.6253 -4.9285 11.6312 -17.1837 17.5591 3.7772 -8.0669 8.1351 0.0000 -0.0000 0.0000 -93.8609 8.2029 -13.2166 7.3277 -12.4573 -0.8008 -0.0000 -0.0000 45.5861 18.3462 -9.4314 -3.1104 -7.1250 0.0000 -0.0000 -6.1523 20.0812 3.6870 0.0000 -0.0000 0.0000 91.8468 -7.9339 -11.5017 -9.8832 16.5566 -1.4415 0.0000 0.0000 54.5913 4.9559 -30.1932 -2.4971 7.1250 -0.0000 -0.0000 38.4835 -55.7550 -11.3574
0.7565 17.4179 9.1228 -9.4574 -2.2759 10.7452 0.0000 0.0000 0.0000 -16.3344 -40.6737 22.0259 0.0600 -1.5805 -4.3477 -5.9437 43.1536 -40.6965 0.3389 3.7409 10.3488 0.0000 0.0000 0.0000 26.9810 25.8240 4.0672 -0.0176 -0.8558 2.3520 1.1026 -21.6428 -20.7516 -0.0062 -0.5067 1.3923 5.4929 0.5558 -2.1721 2.5765 1.0829 -9.5538 -0.3928 0.2236 -8.8254 -10.2582 -11.5718 -4.9857 11.6587 -17.1017 17.5714 3.8053 -8.0279 8.1493 0.0000 0.0000 0.0000 -93.9980 8.1539 -13.4411 7.3424 -12.4813 -0.8040 -0.0000 -0.0000 45.6939 18.3019 -9.3702 -3.0825 -7.1250 0.0000 -0.0000 -6.1842 20.1478 3.6970 0.0000 0.0000 0.0000 91.7373 -7.9000 -11.4359 -9.8643 16.5271 -1.4361 0.0000 0.0000 54.6356 4.9631 -30.2083 -2.5018 7.1250 -0.0000 -0.0000 38.5032 -55.7655 -11.3749
